<?xml version="1.0" standalone="no"?>
<!DOCTYPE svg PUBLIC "-//W3C//DTD SVG 20010904//EN"
 "http://www.w3.org/TR/2001/REC-SVG-20010904/DTD/svg10.dtd">
<svg version="1.0" xmlns="http://www.w3.org/2000/svg"
 width="16.000000pt" height="16.000000pt" viewBox="0 0 16.000000 16.000000"
 preserveAspectRatio="xMidYMid meet">
<metadata>
Created by potrace 1.11, written by Peter Selinger 2001-2013
</metadata>
<g transform="translate(0.000000,16.000000) scale(0.001667,-0.001667)"
fill="#000000" stroke="none">
<path d="M5570 8046 c-62 -18 -108 -73 -126 -151 -2 -5 -15 -50 -29 -100 -15
-49 -29 -97 -30 -105 -2 -8 -13 -46 -25 -85 -12 -38 -23 -77 -25 -85 -3 -8
-14 -46 -26 -85 -11 -38 -27 -92 -34 -120 -7 -27 -23 -81 -35 -120 -11 -38
-23 -80 -26 -93 -2 -13 -11 -42 -19 -65 -11 -36 -32 -105 -41 -142 -1 -5 -17
-59 -34 -120 -18 -60 -33 -114 -34 -120 -3 -17 -17 -59 -26 -80 -7 -19 -42
-145 -46 -172 -1 -7 -9 -34 -18 -61 -17 -51 -143 -483 -151 -517 -3 -11 -14
-50 -25 -87 -11 -37 -29 -100 -41 -138 -11 -39 -22 -76 -23 -83 -2 -7 -11 -38
-20 -71 -10 -32 -19 -64 -20 -70 -2 -6 -11 -38 -21 -71 -10 -33 -20 -64 -21
-70 -1 -5 -25 -89 -54 -185 -28 -96 -53 -182 -55 -191 -4 -20 -50 -179 -75
-264 -21 -68 -48 -165 -51 -180 -1 -5 -10 -34 -20 -63 -10 -30 -18 -57 -17
-60 1 -4 -2 -14 -5 -22 -5 -14 -37 -120 -43 -145 -1 -5 -25 -86 -52 -180 -28
-93 -57 -195 -65 -225 -9 -30 -22 -77 -30 -105 -33 -111 -79 -271 -82 -285 -2
-8 -4 -15 -5 -15 -1 0 -3 -7 -5 -15 -2 -8 -6 -24 -9 -35 -2 -11 -19 -65 -36
-120 -17 -55 -32 -107 -34 -115 -2 -8 -11 -40 -19 -70 -34 -123 -49 -176 -55
-190 -3 -8 -7 -26 -9 -40 -2 -13 -9 -30 -15 -37 -6 -7 -8 -13 -4 -13 3 0 -1
-17 -9 -37 -9 -21 -16 -40 -16 -43 0 -3 -4 -23 -10 -45 -6 -22 -13 -47 -15
-55 -1 -8 -19 -69 -39 -135 -20 -66 -37 -127 -40 -136 -2 -9 -13 -49 -25 -90
-12 -41 -24 -81 -25 -89 -2 -8 -4 -15 -5 -15 -1 0 -3 -7 -5 -15 -1 -8 -17 -62
-34 -120 -18 -58 -34 -114 -37 -125 -2 -11 -17 -65 -33 -120 -117 -393 -143
-489 -141 -529 3 -87 71 -150 185 -172 6 -1 34 -9 63 -17 28 -9 52 -13 52 -10
0 3 6 0 14 -6 8 -7 32 -14 52 -17 21 -3 41 -8 44 -12 3 -4 28 -9 57 -10 104
-7 160 44 200 185 13 48 31 111 39 138 14 48 21 72 29 105 2 8 4 16 5 18 2 1
4 7 5 12 1 6 3 11 5 13 1 1 3 9 5 17 5 25 31 117 80 284 26 88 49 167 51 175
2 9 12 45 23 81 61 205 144 490 153 525 5 22 11 45 12 50 2 6 5 17 8 25 3 8
11 35 18 60 7 25 16 56 21 70 7 21 17 56 35 125 2 6 26 89 54 185 28 96 55
189 60 205 25 95 219 760 228 785 5 14 10 27 10 30 0 3 6 25 13 50 15 56 17
60 23 85 3 11 14 52 26 90 12 39 23 77 24 85 2 8 6 23 10 33 13 37 18 53 22
77 3 14 7 32 11 40 3 8 7 17 8 20 0 3 4 14 7 25 3 11 27 97 53 190 26 94 51
179 56 190 4 11 15 47 24 80 19 72 18 68 50 180 15 50 28 95 29 100 18 69 28
103 33 115 4 8 7 17 8 20 0 3 4 14 8 25 3 11 9 31 11 45 3 14 15 57 26 95 12
39 23 77 25 85 2 8 4 16 5 18 2 1 3 5 4 10 2 4 8 27 15 52 7 25 15 56 18 70 2
13 9 30 15 37 6 7 8 13 5 13 -4 0 0 19 9 41 8 23 16 51 19 63 5 24 29 110 105
366 28 96 53 184 55 194 3 10 9 33 15 51 6 18 13 41 15 51 3 10 14 51 25 89
12 39 22 75 24 80 1 6 11 37 21 70 10 33 19 67 21 75 1 8 7 31 14 50 6 19 20
69 31 110 11 41 23 79 27 84 3 6 7 17 7 26 1 8 30 110 64 227 34 116 64 220
66 230 3 10 14 50 25 88 34 112 25 169 -32 221 -25 23 -88 58 -88 49 0 -3 -16
1 -35 9 -19 8 -35 13 -35 11 0 -2 -15 1 -32 6 -60 18 -183 51 -208 55 -14 3
-29 6 -35 8 -5 1 -26 -2 -45 -8z"/>
<path d="M2595 7070 c-16 -4 -39 -11 -50 -17 -29 -16 -2499 -2489 -2507 -2510
-18 -50 -21 -58 -20 -64 1 -4 3 -23 5 -42 2 -19 13 -48 25 -63 38 -54 2471
-2479 2504 -2496 42 -23 104 -23 146 0 25 13 276 255 328 315 33 39 38 136 8
182 -8 13 -480 489 -1048 1057 l-1034 1033 1032 1033 c567 568 1036 1039 1043
1046 32 38 37 121 8 175 -11 22 -127 143 -278 289 -49 48 -114 73 -162 62z"/>
<path d="M6905 7056 c-24 -10 -280 -257 -331 -319 -32 -38 -37 -108 -14 -162
13 -29 299 -322 1053 -1075 l1036 -1035 -1031 -1030 c-567 -566 -1038 -1041
-1046 -1054 -9 -13 -18 -31 -20 -40 -9 -35 -4 -99 11 -127 20 -39 298 -314
339 -336 42 -23 104 -23 146 0 37 19 2457 2433 2503 2496 16 21 26 42 24 47
-3 4 -1 10 4 13 13 8 -6 93 -28 124 -37 52 -2474 2482 -2504 2497 -37 18 -102
19 -142 1z"/>
</g>
</svg>
